<svg aria-hidden="true" style="position:absolute;width:0;height:0;overflow:hidden"
  xmlns="http://www.w3.org/2000/svg">
  <defs>
    <symbol id="icon-calendar" viewBox="0 0 32 32">
      <path
        d="M12,19a1,1,0,1,0-1-1A1,1,0,0,0,12,19Zm5,0a1,1,0,1,0-1-1A1,1,0,0,0,17,19Zm0-4a1,1,0,1,0-1-1A1,1,0,0,0,17,15Zm-5,0a1,1,0,1,0-1-1A1,1,0,0,0,12,15ZM19,3H18V2a1,1,0,0,0-2,0V3H8V2A1,1,0,0,0,6,2V3H5A3,3,0,0,0,2,6V20a3,3,0,0,0,3,3H19a3,3,0,0,0,3-3V6A3,3,0,0,0,19,3Zm1,17a1,1,0,0,1-1,1H5a1,1,0,0,1-1-1V11H20ZM20,9H4V6A1,1,0,0,1,5,5H6V6A1,1,0,0,0,8,6V5h8V6a1,1,0,0,0,2,0V5h1a1,1,0,0,1,1,1ZM7,15a1,1,0,1,0-1-1A1,1,0,0,0,7,15Zm0,4a1,1,0,1,0-1-1A1,1,0,0,0,7,19Z" />
    </symbol>
    <symbol
      id="icon-close" viewBox="0 0 32 32">
      <path
        d="m25.333 8.547-1.88-1.88L16 14.12 8.547 6.667l-1.88 1.88L14.12 16l-7.453 7.453 1.88 1.88L16 17.88l7.453 7.453 1.88-1.88L17.88 16l7.453-7.453z" />
    </symbol>
    <symbol
      id="icon-eye" viewBox="0 0 32 32">
      <path
        d="M16 6c-6.979 0-13.028 4.064-16 10 2.972 5.936 9.021 10 16 10s13.027-4.064 16-10c-2.972-5.936-9.021-10-16-10zM23.889 11.303c1.88 1.199 3.473 2.805 4.67 4.697-1.197 1.891-2.79 3.498-4.67 4.697-2.362 1.507-5.090 2.303-7.889 2.303s-5.527-0.796-7.889-2.303c-1.88-1.199-3.473-2.805-4.67-4.697 1.197-1.891 2.79-3.498 4.67-4.697 0.122-0.078 0.246-0.154 0.371-0.228-0.311 0.854-0.482 1.776-0.482 2.737 0 4.418 3.582 8 8 8s8-3.582 8-8c0-0.962-0.17-1.883-0.482-2.737 0.124 0.074 0.248 0.15 0.371 0.228v0zM16 13c0 1.657-1.343 3-3 3s-3-1.343-3-3 1.343-3 3-3 3 1.343 3 3z"></path>
    </symbol>
    <symbol
      id="icon-eye-blocked" viewBox="0 0 32 32">
      <path
        d="M29.561 0.439c-0.586-0.586-1.535-0.586-2.121 0l-6.318 6.318c-1.623-0.492-3.342-0.757-5.122-0.757-6.979 0-13.028 4.064-16 10 1.285 2.566 3.145 4.782 5.407 6.472l-4.968 4.968c-0.586 0.586-0.586 1.535 0 2.121 0.293 0.293 0.677 0.439 1.061 0.439s0.768-0.146 1.061-0.439l27-27c0.586-0.586 0.586-1.536 0-2.121zM13 10c1.32 0 2.44 0.853 2.841 2.037l-3.804 3.804c-1.184-0.401-2.037-1.521-2.037-2.841 0-1.657 1.343-3 3-3zM3.441 16c1.197-1.891 2.79-3.498 4.67-4.697 0.122-0.078 0.246-0.154 0.371-0.228-0.311 0.854-0.482 1.776-0.482 2.737 0 1.715 0.54 3.304 1.459 4.607l-1.904 1.904c-1.639-1.151-3.038-2.621-4.114-4.323z"></path>
      <path
        d="M24 13.813c0-0.849-0.133-1.667-0.378-2.434l-10.056 10.056c0.768 0.245 1.586 0.378 2.435 0.378 4.418 0 8-3.582 8-8z"></path>
      <path
        d="M25.938 9.062l-2.168 2.168c0.040 0.025 0.079 0.049 0.118 0.074 1.88 1.199 3.473 2.805 4.67 4.697-1.197 1.891-2.79 3.498-4.67 4.697-2.362 1.507-5.090 2.303-7.889 2.303-1.208 0-2.403-0.149-3.561-0.439l-2.403 2.403c1.866 0.671 3.873 1.036 5.964 1.036 6.978 0 13.027-4.064 16-10-1.407-2.81-3.504-5.2-6.062-6.938z"></path>
    </symbol>
    <symbol
      id="icon-arrow-down" width="10" height="7" fill="none" viewBox="0 0 10 7">
      <path d="M1 1.5L5 5.5L9 1.5" stroke-opacity="0.8" stroke-width="1.5" stroke-linecap="round"
        stroke-linejoin="round" />
    </symbol>
    <symbol id="icon-plus-white" viewBox="0 0 32 32">
      <path fill="none" stroke="#121212" stroke-linejoin="round" stroke-linecap="round"
        stroke-miterlimit="4" stroke-width="2.2857" d="M16 6.667v18.667"></path>
      <path fill="none" stroke="#121212" stroke-linejoin="round" stroke-linecap="round"
        stroke-miterlimit="4" stroke-width="2.2857" d="M6.667 16h18.667"></path>
    </symbol>
    <symbol
      id="icon-filter" viewBox="0 0 37 32">
      <path fill="none" stroke-linejoin="round" stroke-linecap="round" stroke-miterlimit="4"
        stroke-width="3.4286"
        d="M33.524 2.286h-30.476l12.191 14.415v9.966l6.095 3.048v-13.013l12.19-14.415z"></path>
    </symbol>
    <symbol
      id="icon-x-close" viewBox="0 0 32 32">
      <path fill="none" stroke="#fff" style="stroke: var(--color1, #fff)" stroke-linejoin="round"
        stroke-linecap="round" stroke-miterlimit="4" stroke-width="2.6667" d="M24 8l-16 16"></path>
      <path fill="none" stroke="#fff" style="stroke: var(--color1, #fff)" stroke-linejoin="round"
        stroke-linecap="round" stroke-miterlimit="4" stroke-width="2.6667" d="M8 8l16 16"></path>
    </symbol>
    <symbol
      id="icon-trash" viewBox="0 0 32 32">
      <path fill="none" stroke-linejoin="round" stroke-linecap="round" stroke-miterlimit="4"
        stroke-width="2.6" d="M12 4h8"></path>
      <path fill="none" stroke-linejoin="round" stroke-linecap="round" stroke-miterlimit="4"
        stroke-width="2.6" d="M4 8h24"></path>
      <path fill="none" stroke-linejoin="round" stroke-linecap="round" stroke-miterlimit="4"
        stroke-width="2.6"
        d="M6.667 8l0.801 12.018c0.149 2.231 0.223 3.347 0.588 4.243 0.662 1.627 2.004 2.883 3.672 3.435 0.919 0.304 2.037 0.304 4.273 0.304v0c2.236 0 3.354 0 4.273-0.304 1.668-0.552 3.010-1.808 3.672-3.435 0.365-0.896 0.439-2.012 0.588-4.243l0.801-12.018"></path>
    </symbol>
    <symbol
      id="icon-pencil" viewBox="0 0 32 32">
      <path fill="none" stroke-linejoin="round" stroke-linecap="round" stroke-miterlimit="4"
        stroke-width="2.6"
        d="M3.333 28.667l7.399-2.846c0.473-0.182 0.71-0.273 0.931-0.392 0.197-0.106 0.384-0.227 0.56-0.364 0.198-0.154 0.378-0.333 0.736-0.692l15.040-15.040c1.473-1.473 1.473-3.861 0-5.333s-3.861-1.473-5.333 0l-15.040 15.040c-0.359 0.359-0.538 0.538-0.692 0.736-0.137 0.176-0.259 0.364-0.364 0.56-0.119 0.221-0.21 0.458-0.392 0.931l-2.846 7.399zM3.333 28.667l2.744-7.135c0.196-0.511 0.295-0.766 0.463-0.883 0.147-0.102 0.329-0.141 0.505-0.107 0.201 0.038 0.395 0.232 0.782 0.619l3.012 3.012c0.387 0.387 0.58 0.58 0.619 0.782 0.034 0.176-0.005 0.358-0.107 0.505-0.117 0.168-0.372 0.267-0.883 0.463l-7.135 2.744z"></path>
    </symbol>
    <symbol
      id='user-avatar-icon' viewBox="0 0 56 48" xmlns="http://www.w3.org/2000/svg">
      <circle cx="28.3333" cy="11.3334" r="11.3334" />
      <path
        d="M55.7529 49.812C55.7529 46.1512 55.0319 42.5263 53.6309 39.1441C52.23 35.762 50.1766 32.6889 47.5881 30.1004C44.9995 27.5118 41.9264 25.4584 38.5443 24.0575C35.1622 22.6566 31.5372 21.9355 27.8764 21.9355C24.2157 21.9355 20.5907 22.6566 17.2086 24.0575C13.8265 25.4584 10.7534 27.5118 8.16482 30.1004C5.57625 32.6889 3.52289 35.762 2.12197 39.1441C0.721045 42.5263 -3.20036e-07 46.1512 0 49.812L27.8765 49.812H55.7529Z" />
    </symbol>
    // Button + <symbol id="icon-btn-plus" viewBox="0 0 14 14" fill="none"
      xmlns="http://www.w3.org/2000/svg">
      <g id="plus">
        <path id="Vector" d="M7 2.91667V11.0833" stroke-linecap="round" stroke-linejoin="round" />
        <path id="Vector_2" d="M2.9165 7H11.0832" stroke-linecap="round" stroke-linejoin="round" />
      </g>
    </symbol>
    <symbol
      id="icon-plus-dark" viewBox="0 0 32 32">
      <path fill="none" stroke="#FFFFFF" stroke-linejoin="round" stroke-linecap="round"
        stroke-miterlimit="4" stroke-width="2.2857" d="M16 6.667v18.667"></path>
      <path fill="none" stroke="#FFFFFF" stroke-linejoin="round" stroke-linecap="round"
        stroke-miterlimit="4" stroke-width="2.2857" d="M6.667 16h18.667"></path>
    </symbol>
     // NewBoard Icons
      <symbol id="colors" fill="none" viewBox="0 0 18 18">
      <path stroke="#fff" stroke-linecap="round" stroke-linejoin="round" stroke-width="1.5"
        d="M9 15.354a4.5 4.5 0 1 0 4.185-7.697m-8.37 0A4.502 4.502 0 0 0 6 16.5a4.5 4.5 0 0 0 4.185-6.158M13.5 6a4.5 4.5 0 1 1-9 0 4.5 4.5 0 0 1 9 0Z" />
    </symbol>
    <symbol
      id="hexagon" fill="none" viewBox="0 0 18 18">
      <path stroke="#fff" stroke-linecap="round" stroke-linejoin="round" stroke-width="1.5"
        d="M8.417 1.824c.213-.118.32-.178.432-.2a.75.75 0 0 1 .302 0c.113.022.22.082.432.2l5.55 3.083c.224.125.337.187.419.276a.75.75 0 0 1 .16.273c.038.115.038.243.038.5v6.088c0 .257 0 .385-.038.5a.75.75 0 0 1-.16.273c-.082.089-.195.151-.42.276l-5.55 3.083c-.212.118-.318.177-.43.2a.75.75 0 0 1-.303 0c-.113-.023-.22-.082-.432-.2l-5.55-3.083c-.224-.125-.337-.187-.419-.276a.75.75 0 0 1-.16-.273c-.038-.115-.038-.243-.038-.5V5.956c0-.257 0-.385.038-.5a.75.75 0 0 1 .16-.273c.082-.089.195-.151.42-.276l5.55-3.083Z" />
    </symbol>
    <symbol
      id="project" fill="none" viewBox="0 0 18 18">
      <path id="Vector"
        d="M2.47276 3.92535C2.64182 3.20459 3.2046 2.64182 3.92535 2.47276V2.47276C4.54997 2.32624 5.20003 2.32624 5.82465 2.47276V2.47276C6.54541 2.64182 7.10818 3.20459 7.27724 3.92535V3.92535C7.42376 4.54997 7.42376 5.20003 7.27724 5.82465V5.82465C7.10818 6.54541 6.54541 7.10818 5.82465 7.27724V7.27724C5.20003 7.42376 4.54997 7.42376 3.92535 7.27724V7.27724C3.2046 7.10818 2.64182 6.54541 2.47276 5.82465V5.82465C2.32624 5.20003 2.32624 4.54997 2.47276 3.92535V3.92535Z"
        stroke="white" stroke-width="1.5" />
      <path id="Vector_2"
        d="M2.47276 12.1753C2.64182 11.4546 3.2046 10.8918 3.92535 10.7228V10.7228C4.54997 10.5762 5.20003 10.5762 5.82465 10.7228V10.7228C6.54541 10.8918 7.10818 11.4546 7.27724 12.1753V12.1753C7.42376 12.8 7.42376 13.45 7.27724 14.0747V14.0747C7.10818 14.7954 6.54541 15.3582 5.82465 15.5272V15.5272C5.20003 15.6738 4.54997 15.6738 3.92535 15.5272V15.5272C3.2046 15.3582 2.64182 14.7954 2.47276 14.0747V14.0747C2.32624 13.45 2.32624 12.8 2.47276 12.1753V12.1753Z"
        stroke="white" stroke-width="1.5" />
      <path id="Vector_3"
        d="M10.7228 3.92535C10.8918 3.20459 11.4546 2.64182 12.1753 2.47276V2.47276C12.8 2.32624 13.45 2.32624 14.0747 2.47276V2.47276C14.7954 2.64182 15.3582 3.20459 15.5272 3.92535V3.92535C15.6738 4.54997 15.6738 5.20003 15.5272 5.82465V5.82465C15.3582 6.54541 14.7954 7.10818 14.0747 7.27724V7.27724C13.45 7.42376 12.8 7.42376 12.1753 7.27724V7.27724C11.4546 7.10818 10.8918 6.54541 10.7228 5.82465V5.82465C10.5762 5.20003 10.5762 4.54997 10.7228 3.92535V3.92535Z"
        stroke="white" stroke-width="1.5" />
      <path id="Vector_4"
        d="M10.7228 12.1753C10.8918 11.4546 11.4546 10.8918 12.1753 10.7228V10.7228C12.8 10.5762 13.45 10.5762 14.0747 10.7228V10.7228C14.7954 10.8918 15.3582 11.4546 15.5272 12.1753V12.1753C15.6738 12.8 15.6738 13.45 15.5272 14.0747V14.0747C15.3582 14.7954 14.7954 15.3582 14.0747 15.5272V15.5272C13.45 15.6738 12.8 15.6738 12.1753 15.5272V15.5272C11.4546 15.3582 10.8918 14.7954 10.7228 14.0747V14.0747C10.5762 13.45 10.5762 12.8 10.7228 12.1753V12.1753Z"
        stroke="white" stroke-width="1.5" />
    </symbol>
    <symbol id="container" fill="none"
      viewBox="0 0 18 18">
      <path stroke="#fff" stroke-linecap="round" stroke-linejoin="round" stroke-width="1.5"
        d="M15.375 5.458 9 9m0 0L2.625 5.458M9 9v7.125m6.75-4.081V5.956c0-.257 0-.385-.038-.5a.75.75 0 0 0-.16-.273c-.082-.089-.195-.151-.42-.276l-5.55-3.083c-.212-.118-.318-.178-.43-.2a.75.75 0 0 0-.303 0c-.113.022-.22.082-.432.2l-5.55 3.083c-.224.125-.337.187-.419.276a.75.75 0 0 0-.16.273c-.038.115-.038.243-.038.5v6.088c0 .257 0 .385.038.5a.75.75 0 0 0 .16.273c.082.089.195.151.42.276l5.55 3.083c.212.118.318.177.43.2.1.021.203.021.303 0 .113-.023.22-.082.432-.2l5.55-3.083c.224-.125.337-.187.419-.276a.75.75 0 0 0 .16-.273c.038-.115.038-.243.038-.5Z" />
    </symbol>
    <symbol
      id="lightnight" fill="none" viewBox="0 0 18 18">
      <path stroke="#fff" stroke-linecap="round" stroke-linejoin="round" stroke-width="1.5"
        d="M10.687 1.5H6.37c-.134 0-.201 0-.26.02a.375.375 0 0 0-.141.087c-.045.044-.075.104-.135.225l-3.15 6.3c-.144.287-.216.431-.199.548a.375.375 0 0 0 .156.252C2.738 9 2.9 9 3.221 9h4.654l-2.25 7.5 9.145-9.484c.308-.32.462-.48.471-.616a.375.375 0 0 0-.132-.311C15.004 6 14.782 6 14.338 6H9l1.687-4.5Z" />
    </symbol>
    <symbol
      id="loading" fill="none" viewBox="0 0 18 18">
      <path stroke="#fff" stroke-linecap="round" stroke-linejoin="round" stroke-width="1.5"
        d="M2.505 12.75a3.58 3.58 0 0 1 1.093-4.755l.002-.002a3.583 3.583 0 0 1 4.113.071l2.574 1.872a3.583 3.583 0 0 0 4.113.07l.002-.001a3.578 3.578 0 0 0 1.093-4.755m-2.743 10.245A3.58 3.58 0 0 1 7.997 14.4l-.002-.002a3.583 3.583 0 0 1 .07-4.113l1.872-2.574a3.583 3.583 0 0 0 .071-4.113l-.003-.001A3.58 3.58 0 0 0 5.25 2.505m9.053 1.192a7.5 7.5 0 0 1 0 10.606 7.5 7.5 0 0 1-10.606 0 7.5 7.5 0 0 1 0-10.606 7.5 7.5 0 0 1 10.606 0Z" />
    </symbol>
    <symbol
      id="puzzle" fill="none" viewBox="0 0 18 18">
      <path stroke="#fff" stroke-linecap="round" stroke-linejoin="round" stroke-width="1.5"
        d="m9 1.5 2.7 2.7c1.8-4.725 6.825.3 2.1 2.1L16.5 9l-2.7 2.7c-1.8-4.725-6.825.3-2.1 2.1L9 16.5l-2.7-2.7c-1.8 4.725-6.825-.3-2.1-2.1L1.5 9l2.7-2.7C6 11.025 11.025 6 6.3 4.2L9 1.5Z" />
    </symbol>
    <symbol
      id="star" fill="none" viewBox="0 0 18 18">
      <path stroke="#fff" stroke-linecap="round" stroke-linejoin="round" stroke-width="1.5"
        d="m9 1.5 1.509 3.923c.211.55.317.825.482 1.056.145.205.325.385.53.53.23.165.506.27 1.056.482L16.5 9l-3.923 1.509c-.55.211-.825.317-1.056.482a2.247 2.247 0 0 0-.53.53c-.165.23-.27.506-.482 1.056L9 16.5l-1.509-3.923c-.211-.55-.317-.825-.482-1.056a2.248 2.248 0 0 0-.53-.53c-.23-.165-.506-.27-1.056-.482L1.5 9l3.923-1.509c.55-.211.825-.317 1.056-.482a2.25 2.25 0 0 0 .53-.53c.165-.23.27-.506.482-1.056L9 1.5Z" />
    </symbol>
    // NewBoard Icons white theme
     <symbol id="colors-white" fill="none" viewBox="0 0 18 18">
      <path
        d="M8.99999 15.3542C9.79613 16.0667 10.8475 16.5 12 16.5C14.4853 16.5 16.5 14.4853 16.5 12C16.5 9.92481 15.0953 8.17769 13.1849 7.65763M4.81513 7.65762C2.9047 8.17768 1.5 9.9248 1.5 12C1.5 14.4853 3.51472 16.5 6 16.5C8.48528 16.5 10.5 14.4853 10.5 12C10.5 11.4146 10.3882 10.8554 10.1849 10.3424M13.5 6C13.5 8.48528 11.4853 10.5 9 10.5C6.51472 10.5 4.5 8.48528 4.5 6C4.5 3.51472 6.51472 1.5 9 1.5C11.4853 1.5 13.5 3.51472 13.5 6Z"
        stroke="#161616" stroke-width="1.5" stroke-linecap="round" stroke-linejoin="round" />
    </symbol>
    <symbol
      id="hexagon-white" fill="none" viewBox="0 0 18 18">
      <path
        d="M8.41723 1.82376C8.62993 1.7056 8.73628 1.64651 8.84891 1.62335C8.94859 1.60285 9.05141 1.60285 9.15109 1.62335C9.26372 1.64651 9.37007 1.7056 9.58277 1.82376L15.1328 4.9071C15.3574 5.0319 15.4697 5.0943 15.5515 5.18305C15.6239 5.26157 15.6786 5.35463 15.7121 5.45601C15.75 5.57061 15.75 5.6991 15.75 5.95609V12.0439C15.75 12.3009 15.75 12.4294 15.7121 12.544C15.6786 12.6454 15.6239 12.7384 15.5515 12.817C15.4697 12.9057 15.3574 12.9681 15.1328 13.0929L9.58277 16.1762C9.37007 16.2944 9.26372 16.3535 9.15109 16.3767C9.05141 16.3972 8.94859 16.3972 8.84891 16.3767C8.73628 16.3535 8.62993 16.2944 8.41723 16.1762L2.86723 13.0929C2.64259 12.9681 2.53026 12.9057 2.44847 12.817C2.37612 12.7384 2.32136 12.6454 2.28786 12.544C2.25 12.4294 2.25 12.3009 2.25 12.0439V5.95609C2.25 5.6991 2.25 5.57061 2.28786 5.45601C2.32136 5.35463 2.37612 5.26157 2.44847 5.18305C2.53026 5.0943 2.64259 5.0319 2.86723 4.9071L8.41723 1.82376Z"
        stroke="#161616" stroke-width="1.5" stroke-linecap="round" stroke-linejoin="round" />
    </symbol>
    <symbol
      id="project-white" fill="none" viewBox="0 0 18 18">
      <path
        d="M2.47276 3.92535C2.64182 3.20459 3.2046 2.64182 3.92535 2.47276V2.47276C4.54997 2.32624 5.20003 2.32624 5.82465 2.47276V2.47276C6.54541 2.64182 7.10818 3.20459 7.27724 3.92535V3.92535C7.42376 4.54997 7.42376 5.20003 7.27724 5.82465V5.82465C7.10818 6.54541 6.54541 7.10818 5.82465 7.27724V7.27724C5.20003 7.42376 4.54997 7.42376 3.92535 7.27724V7.27724C3.2046 7.10818 2.64182 6.54541 2.47276 5.82465V5.82465C2.32624 5.20003 2.32624 4.54997 2.47276 3.92535V3.92535Z"
        stroke="#161616" stroke-width="1.5" />
      <path
        d="M2.47276 12.1753C2.64182 11.4546 3.2046 10.8918 3.92535 10.7228V10.7228C4.54997 10.5762 5.20003 10.5762 5.82465 10.7228V10.7228C6.54541 10.8918 7.10818 11.4546 7.27724 12.1753V12.1753C7.42376 12.8 7.42376 13.45 7.27724 14.0747V14.0747C7.10818 14.7954 6.54541 15.3582 5.82465 15.5272V15.5272C5.20003 15.6738 4.54997 15.6738 3.92535 15.5272V15.5272C3.2046 15.3582 2.64182 14.7954 2.47276 14.0747V14.0747C2.32624 13.45 2.32624 12.8 2.47276 12.1753V12.1753Z"
        stroke="#161616" stroke-width="1.5" />
      <path
        d="M10.7228 3.92535C10.8918 3.20459 11.4546 2.64182 12.1753 2.47276V2.47276C12.8 2.32624 13.45 2.32624 14.0747 2.47276V2.47276C14.7954 2.64182 15.3582 3.20459 15.5272 3.92535V3.92535C15.6738 4.54997 15.6738 5.20003 15.5272 5.82465V5.82465C15.3582 6.54541 14.7954 7.10818 14.0747 7.27724V7.27724C13.45 7.42376 12.8 7.42376 12.1753 7.27724V7.27724C11.4546 7.10818 10.8918 6.54541 10.7228 5.82465V5.82465C10.5762 5.20003 10.5762 4.54997 10.7228 3.92535V3.92535Z"
        stroke="#161616" stroke-width="1.5" />
      <path
        d="M10.7228 12.1753C10.8918 11.4546 11.4546 10.8918 12.1753 10.7228V10.7228C12.8 10.5762 13.45 10.5762 14.0747 10.7228V10.7228C14.7954 10.8918 15.3582 11.4546 15.5272 12.1753V12.1753C15.6738 12.8 15.6738 13.45 15.5272 14.0747V14.0747C15.3582 14.7954 14.7954 15.3582 14.0747 15.5272V15.5272C13.45 15.6738 12.8 15.6738 12.1753 15.5272V15.5272C11.4546 15.3582 10.8918 14.7954 10.7228 14.0747V14.0747C10.5762 13.45 10.5762 12.8 10.7228 12.1753V12.1753Z"
        stroke="#161616" stroke-width="1.5" />
    </symbol>
    <symbol id="container-white" fill="none"
      viewBox="0 0 18 18">
      <path
        d="M15.375 5.45831L8.99998 8.99998M8.99998 8.99998L2.62498 5.45831M8.99998 8.99998L9 16.125M15.75 12.0439V5.95609C15.75 5.6991 15.75 5.57061 15.7121 5.45601C15.6786 5.35463 15.6239 5.26157 15.5515 5.18305C15.4697 5.0943 15.3574 5.0319 15.1328 4.9071L9.58277 1.82376C9.37007 1.7056 9.26372 1.64651 9.15109 1.62335C9.05141 1.60285 8.9486 1.60285 8.84891 1.62335C8.73628 1.64651 8.62993 1.7056 8.41723 1.82376L2.86723 4.9071C2.64259 5.0319 2.53026 5.0943 2.44847 5.18305C2.37612 5.26157 2.32136 5.35463 2.28786 5.45602C2.25 5.57061 2.25 5.69911 2.25 5.95609V12.0439C2.25 12.3009 2.25 12.4294 2.28786 12.544C2.32136 12.6454 2.37612 12.7384 2.44847 12.817C2.53026 12.9057 2.64259 12.9681 2.86723 13.0929L8.41723 16.1762C8.62993 16.2944 8.73628 16.3535 8.84891 16.3767C8.9486 16.3972 9.05141 16.3972 9.15109 16.3767C9.26372 16.3535 9.37007 16.2944 9.58277 16.1762L15.1328 13.0929C15.3574 12.9681 15.4697 12.9057 15.5515 12.817C15.6239 12.7384 15.6786 12.6454 15.7121 12.544C15.75 12.4294 15.75 12.3009 15.75 12.0439Z"
        stroke="#161616" stroke-width="1.5" stroke-linecap="round" stroke-linejoin="round" />
    </symbol>
    <symbol
      id="lightnight-white" fill="none" viewBox="0 0 18 18">
      <path
        d="M10.6871 1.5H6.37047C6.23586 1.5 6.16855 1.5 6.10913 1.5205C6.05658 1.53862 6.00872 1.5682 5.96901 1.60709C5.92411 1.65107 5.89401 1.71127 5.83381 1.83167L2.68381 8.13167C2.54005 8.41919 2.46817 8.56295 2.48543 8.67981C2.50051 8.78185 2.55695 8.87318 2.64148 8.9323C2.73828 9 2.89901 9 3.22046 9H7.87465L5.62464 16.5L14.7695 7.01648C15.078 6.69653 15.2323 6.53655 15.2413 6.39966C15.2491 6.28084 15.2 6.16536 15.1091 6.08852C15.0043 6 14.782 6 14.3376 6H8.99965L10.6871 1.5Z"
        stroke="#161616" stroke-width="1.5" stroke-linecap="round" stroke-linejoin="round" />
    </symbol>
    <symbol
      id="loading-white" fill="none" viewBox="0 0 18 18">
      <path
        d="M2.50519 12.7498C1.56607 11.1224 2.04355 9.04833 3.59847 7.99505L3.60013 7.99338C4.84923 7.14926 6.49331 7.17759 7.71325 8.06421L10.2873 9.93578C11.5064 10.8224 13.1505 10.8507 14.4004 10.0066L14.4021 10.0049C15.9578 8.95166 16.4361 6.87594 15.4953 5.25019M12.7515 15.4945C11.1241 16.4336 9.04999 15.9561 7.99671 14.4012L7.99505 14.3995C7.15093 13.1504 7.17926 11.5063 8.06588 10.2864L9.93744 7.71238C10.8241 6.49327 10.8524 4.84919 10.0083 3.59926L10.0049 3.59759C8.95166 2.04351 6.87594 1.56437 5.25019 2.50515M14.3029 3.69676C17.2319 6.62577 17.2319 11.3739 14.3029 14.3029C11.3739 17.2319 6.62577 17.2319 3.69676 14.3029C0.767747 11.3739 0.767747 6.62577 3.69676 3.69676C6.62577 0.767747 11.3739 0.767747 14.3029 3.69676Z"
        stroke="#161616" stroke-width="1.5" stroke-linecap="round" stroke-linejoin="round" />
    </symbol>
    <symbol
      id="puzzle-white" fill="none" viewBox="0 0 18 18">
      <path
        d="M9 1.5L11.7 4.2C13.5 -0.525 18.525 4.5 13.8 6.3L16.5 9L13.8 11.7C12 6.975 6.975 12 11.7 13.8L9 16.5L6.3 13.8C4.5 18.525 -0.525 13.5 4.2 11.7L1.5 9L4.2 6.3C6 11.025 11.025 6 6.3 4.2L9 1.5Z"
        stroke="#161616" stroke-width="1.5" stroke-linecap="round" stroke-linejoin="round" />
    </symbol>
    <symbol
      id="star-white" fill="none" viewBox="0 0 18 18">
      <path
        d="M9 1.5L10.509 5.42331C10.7205 5.97324 10.8262 6.2482 10.9907 6.47948C11.1364 6.68446 11.3155 6.86356 11.5205 7.00931C11.7518 7.17377 12.0268 7.27952 12.5767 7.49103L16.5 9L12.5767 10.509C12.0268 10.7205 11.7518 10.8262 11.5205 10.9907C11.3155 11.1364 11.1364 11.3155 10.9907 11.5205C10.8262 11.7518 10.7205 12.0268 10.509 12.5767L9 16.5L7.49103 12.5767C7.27952 12.0268 7.17377 11.7518 7.00931 11.5205C6.86356 11.3155 6.68446 11.1364 6.47948 10.9907C6.2482 10.8262 5.97324 10.7205 5.42331 10.509L1.5 9L5.42331 7.49103C5.97323 7.27952 6.2482 7.17377 6.47948 7.00931C6.68446 6.86356 6.86356 6.68446 7.00931 6.47948C7.17377 6.2482 7.27952 5.97324 7.49103 5.42331L9 1.5Z"
        stroke="#161616" stroke-width="1.5" stroke-linecap="round" stroke-linejoin="round" />
    </symbol>
    ///////////////////////////////////////////////////// <symbol id="icon-arrow-redirect"
      viewBox="0 0 32 32">
      <path fill="none" stroke-linejoin="round" stroke-linecap="round" stroke-miterlimit="4"
        stroke-width="2.6"
        d="M4.45 9.333c2.305-3.985 6.614-6.667 11.55-6.667 7.364 0 13.333 5.97 13.333 13.333s-5.97 13.333-13.333 13.333c-4.935 0-9.244-2.681-11.55-6.667"></path>
      <path fill="none" stroke-linejoin="round" stroke-linecap="round" stroke-miterlimit="4"
        stroke-width="2.6" d="M16 21.333l5.333-5.333-5.333-5.333"></path>
      <path fill="none" stroke-linejoin="round" stroke-linecap="round" stroke-miterlimit="4"
        stroke-width="2.6" d="M2.667 16h18.667"></path>
    </symbol>
    <symbol id="icon-arrow"
      viewBox="0 0 32 32">
      <path fill="none" stroke-linejoin="round" stroke-linecap="round" stroke-miterlimit="4"
        stroke-width="2.6"
        d="M4.45 9.333c2.305-3.985 6.614-6.667 11.55-6.667 7.364 0 13.333 5.97 13.333 13.333s-5.97 13.333-13.333 13.333c-4.935 0-9.244-2.681-11.55-6.667"></path>
      <path fill="none" stroke-linejoin="round" stroke-linecap="round" stroke-miterlimit="4"
        stroke-width="2.6" d="M16 21.333l5.333-5.333-5.333-5.333"></path>
      <path fill="none" stroke-linejoin="round" stroke-linecap="round" stroke-miterlimit="4"
        stroke-width="2.6" d="M2.667 16h18.667"></path>
    </symbol>
    <symbol id="icon-alarm"
      viewBox="0 0 14 16">
      <path
        fill="none" d="M5.23612 14C5.70621 14.4149 6.32371 14.6666 7 14.6666C7.6763 14.6666 8.2938 14.4149 8.76389 14M11 5.33331C11 4.27245 10.5786 3.25503 9.82843 2.50489C9.07829 1.75474 8.06087 1.33331 7 1.33331C5.93914 1.33331 4.92172 1.75474 4.17158 2.50489C3.42143 3.25503 3 4.27245 3 5.33331C3 7.39344 2.48032 8.80395 1.89978 9.73692C1.41009 10.5239 1.16524 10.9174 1.17422 11.0272C1.18416 11.1487 1.20991 11.195 1.30785 11.2677C1.39631 11.3333 1.79506 11.3333 2.59257 11.3333H11.4074C12.2049 11.3333 12.6037 11.3333 12.6922 11.2677C12.7901 11.195 12.8158 11.1487 12.8258 11.0272C12.8348 10.9174 12.5899 10.5239 12.1002 9.73692C11.5197 8.80395 11 7.39344 11 5.33331Z"
         stroke-width="1.5" stroke-linecap="round" stroke-linejoin="round" />
    </symbol>
    <symbol
      id="icon-Vector-1" viewBox="0 0 4640 32">
      <path fill="none" stroke="rgba(255, 255, 255, 0.1)"
        style="stroke: var(--color1, rgba(255, 255, 255, 0.1))" stroke-linejoin="miter"
        stroke-linecap="butt" stroke-miterlimit="4" stroke-width="16" d="M0 16h4640"></path>
    </symbol>
<symbol
      id="icon-iconlogo" viewBox="0 0 32 32">
      <path
        d="M13.331 23.027c0.245-1.272 0.453-2.61 0.747-3.949 0.145-0.701-0.032-0.999-0.815-0.946s-1.657 0.027-2.49 0c-0.833-0.027-0.982-0.446-0.502-1.044 2.363-2.918 4.753-5.8 7.134-8.674 0.267-0.326 0.575-0.558 1.014-0.312s0.349 0.549 0.276 0.915c-0.263 1.339-0.48 2.677-0.77 3.989-0.149 0.678 0.045 0.919 0.751 0.892 0.709-0.036 1.419-0.036 2.127 0 0.403 0 0.933-0.21 1.141 0.339s-0.231 0.781-0.453 1.107c-0.905 1.115-1.823 2.229-2.752 3.342-1.361 1.624-2.711 3.242-4.051 4.854-0.263 0.317-0.557 0.571-1.005 0.41s-0.353-0.54-0.353-0.924z"></path>
    </symbol>
<symbol
      id="icon-help-circle" viewBox="0 0 32 32">
      <path fill="none"  stroke-linejoin="round"
        stroke-linecap="round" stroke-miterlimit="4" stroke-width="2.88"
        d="M16 29.333c7.364 0 13.333-5.97 13.333-13.333s-5.97-13.333-13.333-13.333c-7.364 0-13.333 5.97-13.333 13.333s5.97 13.333 13.333 13.333z"></path>
      <path fill="none"  stroke-linejoin="round"
        stroke-linecap="round" stroke-miterlimit="4" stroke-width="2.88"
        d="M12.12 12c0.313-0.891 0.932-1.643 1.747-2.121s1.772-0.654 2.703-0.494c0.931 0.16 1.776 0.644 2.384 1.366s0.941 1.637 0.94 2.582c0 2.667-4 4-4 4"></path>
      <path fill="none"  stroke-linejoin="round"
        stroke-linecap="round" stroke-miterlimit="4" stroke-width="2.88" d="M16 22.666h0.020"></path>
    </symbol>
<symbol
      id="icon-iconlogout" viewBox="0 0 32 32">
      <path fill="none" 
        stroke-linejoin="round" stroke-linecap="round" stroke-miterlimit="4" stroke-width="1.5"
        d="M11.867 10.080c0.413-4.8 2.88-6.76 8.28-6.76h0.173c5.96 0 8.347 2.387 8.347 8.347v8.693c0 5.96-2.387 8.347-8.347 8.347h-0.173c-5.36 0-7.827-1.933-8.267-6.653"></path>
      <path fill="none" 
        stroke-linejoin="round" stroke-linecap="round" stroke-miterlimit="4" stroke-width="1.5"
        d="M2.667 16h17.173"></path>
      <path fill="none" 
        stroke-linejoin="round" stroke-linecap="round" stroke-miterlimit="4" stroke-width="1.5"
        d="M16.867 11.533l4.467 4.467-4.467 4.467"></path>
    </symbol> // <symbol
      id="icon-burger-menu" viewBox="0 0 24 24" fill="none" xmlns="http://www.w3.org/2000/svg">
      <g id="menu-01">
        <path id="Icon" d="M3 12H21" stroke-width="2" stroke-linecap="round" stroke-linejoin="round" />
        <path id="Icon_2" d="M3 6H21" stroke-width="2" stroke-linecap="round"
          stroke-linejoin="round" />
        <path id="Icon_3" d="M3 18H21" stroke-width="2" stroke-linecap="round"
          stroke-linejoin="round" />
      </g>
    </symbol>
  </defs>
</svg>